#!OML:ASF F:\VICON\USERDATA\INSTALL\rory3\rory3.ASF
:FULLY-SPECIFIED
:DEGREES
55
root 0.4713557296973299 17.436856565209368 -0.6537810489409299 3.9853663984833396 -6.462557485321429 -2.8812771674481676
lfemur -5.051610944367287 3.8539515678305194 -19.09089039181429
ltibia 55.6645861452708
lfoot -5.141748862545562 -6.716711653664392
ltoes -3.4039002460223884
rfemur -32.32532653858243 2.7365895071302853 28.040735200778837
rtibia 55.92235941750867
rfoot -0.03455795982050791 -7.833937439445264
rtoes 10.923794643070094
lowerback 15.485616162633297 0.8199744878011027 1.3621851838175807
upperback -0.2717309982088437 1.3866761129748 1.9192074398326242
thorax -9.883135237390826 0.7771288826146224 1.5578040112637066
lowerneck -20.379067928483458 -4.0021311978246095 -2.453914954926838
upperneck 6.383247576381931 -5.500496981767059 5.717108461942378
head 5.567041304467785 -2.1820566393334775 1.5379269781982317
lclavicle -1.3367475555475266e-15 -2.758979314873072e-15
lhumerus -35.497284513029015 -8.145581132731348 87.62396911424322
lradius 117.6007375796669
lwrist 32.676378944394486
lhand -24.176587217299247 5.117066089075077
lfingers 7.12502
lthumb 1.9254472628016723 34.3696488219898
rclavicle -1.3367475555006844e-15 -2.7589793148399277e-15
rhumerus -54.96869485439392 10.406139072587731 -99.78995974217933
rradius 114.87380298351192
rwrist -22.15924280423787
rhand -18.146235921965577 37.48744912018598
rfingers 7.12502
rthumb 7.989917863037404 7.160121450265619
56
root 0.47944814778610445 17.456001994692283 0.09441689069566728 4.077955108054873 -6.454933925705601 -3.0630346234700023
lfemur -5.911504436005915 4.113965548187373 -18.454095549030466
ltibia 57.91282253377062
lfoot -4.329411235199641 -6.286382667517669
ltoes -3.900637576819067
rfemur -32.17723519954226 2.824705293133868 28.471198466964523
rtibia 54.48618873315765
rfoot -0.18968998967993578 -8.413425890073466
rtoes 10.70651035243858
lowerback 15.438768535438374 0.8528209553825616 1.5990100081831855
upperback -0.24733391288628392 1.4953965888175658 2.1245579287538847
thorax -9.83942405345454 0.8289258758476258 1.478378937820032
lowerneck -20.416553151566106 -3.9305452841788227 -2.4603924596288014
upperneck 6.473375784328656 -5.370248910205324 5.6781433675096995
head 5.6600421969677255 -2.1031547898935847 1.5361778705629097
lclavicle -1.3367475555488282e-15 -2.758979314873948e-15
lhumerus -35.59476793855103 -7.777596310192501 87.32476939412551
lradius 118.84963076601827
lwrist 33.057926531015966
lhand -24.174461366029764 4.888680276596032
lfingers 7.12502
lthumb 1.9870725311592814 34.164224483388985
rclavicle -1.3367475555015575e-15 -2.75897931484048e-15
rhumerus -55.483291101217645 10.262042199248258 -99.6302118005296
rradius 115.14827349972187
rwrist -22.109589857070173
rhand -18.068647468495964 37.85176992374506
rfingers 7.12502
rthumb 8.070435656444145 7.529671448757679
57
root 0.4920872038287737 17.488756245665872 0.7991207427489071 4.174207060784903 -6.442157254282371 -3.255886100719781
lfemur -6.912208424939035 4.363623313847604 -17.814039187203047
ltibia 60.39718383299607
lfoot -3.0017728867529794 -5.36916938041543
ltoes -5.721442975005868
rfemur -31.72711639830768 2.907306018643707 28.925671079164122
rtibia 53.0384067979146
rfoot -0.2551028136377651 -8.855747941623077
rtoes 10.871683271233158
lowerback 15.352500165839418 0.8922375624699627 1.8741092478956065
upperback -0.22839330161132687 1.6079320472617624 2.296383576208121
thorax -9.793254015331776 0.8660503587054738 1.3570301262899214
lowerneck -20.36134659539187 -3.8847831501172 -2.4507781588809934
upperneck 6.577231458256693 -5.293766115860495 5.624117936063547
head 5.7255157859807735 -2.0704498761510783 1.5198608745503743
lclavicle -1.3367475555490063e-15 -2.758979314873972e-15
lhumerus -35.721991822896875 -7.501576409714109 87.05986335069646
lradius 119.87427392430318
lwrist 33.43027535605574
lhand -24.12261198316729 4.75862315310022
lfingers 7.12502
lthumb 2.000544017498183 33.9343244546026
rclavicle -1.3367475555043629e-15 -2.7589793148425144e-15
rhumerus -56.01762152306566 10.037082183922116 -99.4515202293702
rradius 115.47900557969982
rwrist -22.250515654568968
rhand -17.96320154311273 38.292275796947756
rfingers 7.12502
rthumb 8.183224153404314 7.980680297869791
58
root 0.49752993531509215 17.523497620740713 1.329919183062291 4.285844704097302 -6.454166247812429 -3.4730260357444176
lfemur -8.11010663870975 4.619592367123092 -17.140054783838025
ltibia 63.11607631706423
lfoot -2.2410049871187274 -5.387122187002788
ltoes -8.970515629324433
rfemur -31.21364952064588 3.0703568296812627 29.366168458311655
rtibia 51.61851469997879
rfoot -0.14978480510824443 -9.10282014890184
rtoes 12.213255499598075
lowerback 15.287494232560059 0.9507877547371244 2.145850510742912
upperback -0.2683152084188424 1.747544470594329 2.4692743097628203
thorax -9.875796812330652 0.9156813487387239 1.2166939497833649
lowerneck -20.179600992637468 -3.8649023242774887 -2.4737846516055777
upperneck 6.697380848720419 -5.255917026812004 5.5760169277782
head 5.786887350817017 -2.0455643619257144 1.5092575909636934
lclavicle -1.3367475555454913e-15 -2.7589793148711966e-15
lhumerus -36.08510189748985 -7.249277878126506 86.91715599414628
lradius 120.75516441224876
lwrist 33.78279581955083
lhand -24.07354191195081 4.667824122541605
lfingers 7.12502
lthumb 1.9570655381485784 33.761745566295616
rclavicle -1.3367475555061414e-15 -2.7589793148438953e-15
rhumerus -56.48522051904614 9.809096782702358 -99.25292564355205
rradius 115.82057144168306
rwrist -22.395317941706363
rhand -17.875840519708152 38.7488373357834
rfingers 7.12502
rthumb 8.238092894056695 8.358543497451338
